<svg id="Layer_1" data-name="Layer 1" xmlns="http://www.w3.org/2000/svg" viewBox="0 0 184 53"><defs><style>.cls-1{fill:#fff;}.cls-2{fill:#f8991d;}</style></defs><title>accenture-logo</title><path class="cls-1" d="M14,41.58c0,3-1.25,7.15-4.95,7.15a2.61,2.61,0,0,1-2.95-2.85C6.06,42.28,11.31,41.58,14,41.58Zm5.3,10.49V35.13c0-5.5-3.6-7.4-8.64-7.4s-9,2.1-9,7.54H7c0-2.35,1.25-3.65,3.65-3.65,2.75,0,3.35,2,3.35,4.35v2.35c-5.4.15-13.29.9-13.29,8,0,4,3.2,6.24,7,6.24,2.6,0,5-.85,6.2-3.3H14v2.75Z"/><path class="cls-1" d="M35.7,36.43c0-2.45-.7-4.8-3.6-4.8-3.5,0-4.55,3.65-4.55,6.5,0,6,3.5,10.59,9.79,10.59a12.11,12.11,0,0,0,4-.6v3.4a23.51,23.51,0,0,1-6.95,1.1c-8.49,0-12.74-5.2-12.74-13.49,0-6.9,3.75-11.39,10.89-11.39,5.8,0,9,2.85,9,8.69Z"/><path class="cls-1" d="M57,36.43c0-2.45-.7-4.8-3.6-4.8-3.5,0-4.55,3.65-4.55,6.5,0,6,3.5,10.59,9.79,10.59a12.09,12.09,0,0,0,4-.6v3.4a23.5,23.5,0,0,1-6.94,1.1C47.21,52.62,43,47.42,43,39.13c0-6.9,3.75-11.39,10.89-11.39,5.79,0,9,2.85,9,8.69Z"/><path class="cls-1" d="M78.74,35.38H70a4.44,4.44,0,0,1,4.5-4.1A3.86,3.86,0,0,1,78.74,35.38ZM84,38.73V37.38c0-5.79-3-9.64-9-9.64-7.09,0-10.19,4.45-10.19,11.19,0,7.85,3.55,13.69,12,13.69a21.35,21.35,0,0,0,6.64-.95V47.82a14.1,14.1,0,0,1-4.54.9c-5.4,0-8.94-4.94-8.94-10Z"/><path class="cls-1" d="M100.42,52.07V38.48c0-1.15.1-4.2-.85-5.1a2.25,2.25,0,0,0-1.6-.45c-4,0-5.6,5.65-5.6,8.85V52.07H86.83V28.29h5.55v4.45h.1a7.37,7.37,0,0,1,7-5c4.54,0,6.44,3.75,6.44,7.85V52.07Z"/><path class="cls-1" d="M117.51,32.13V43.37c0,2.8.3,5.35,3.75,5.35a11.22,11.22,0,0,0,2.55-.4v3.9a27.91,27.91,0,0,1-4.54.4c-4.85,0-7.3-1.6-7.3-6.54V32.13h-4.65V28.29H112V22.64l5.55-2.25v7.9h7v3.85Z"/><path class="cls-1" d="M140.6,52.07V47.62h-.1a7.48,7.48,0,0,1-7,5c-4.55,0-6.45-3.75-6.45-7.84V28.29h5.55V41.88c0,1.15-.1,4.2.85,5.1a2.25,2.25,0,0,0,1.6.45c4,0,5.59-5.64,5.59-8.84V28.29h5.55V52.07Z"/><path class="cls-1" d="M155.19,41.63V52.07h-5.55V28.29h5.55v4.4h.1c1.85-3.3,3.7-4.95,7.7-4.95v5.8C157.29,33.53,155.19,36,155.19,41.63Z"/><path class="cls-1" d="M178.09,35.38h-8.7a4.44,4.44,0,0,1,4.5-4.1A3.86,3.86,0,0,1,178.09,35.38Zm5.24,3.35V37.38c0-5.79-3-9.64-9-9.64-7.09,0-10.19,4.45-10.19,11.19,0,7.85,3.55,13.69,12,13.69a21.35,21.35,0,0,0,6.64-.95V47.82a14.12,14.12,0,0,1-4.54.9c-5.4,0-8.94-4.94-8.94-10Z"/><path class="cls-2" d="M107.31.38V4.29L120,9.2l-12.68,4.88V18l17.24-7V7.39Z"/></svg>