<svg id="Layer_1" data-name="Layer 1" xmlns="http://www.w3.org/2000/svg" viewBox="0 0 175 118"><defs><style>.cls-1{fill:#f8991d;}.cls-2{fill:#fff;}</style></defs><title>accenture-lockup</title><path class="cls-1" d="M26.41.33V26.41S100.22,55,110.78,59.13c-10.56,4-84.37,32.51-84.37,32.51v26L141.37,71V47.09L26.41.33"/><path class="cls-2" d="M.39,48.34H2v4.55H6.19V48.34H7.76V59.13H6.19v-5H2v5H.39Zm9.23,0h1.69v1.6H9.62Zm.14,3.35h1.41v7.45H9.76Zm9,7.74c0,2.16-1.22,3-3.44,3A9.53,9.53,0,0,1,13,62.21V60.79a4.92,4.92,0,0,0,2.14.59c2.18,0,2.18-1.52,2.18-2.36V57.86h0a2.13,2.13,0,0,1-2,1.27c-2,0-2.56-1.82-2.56-3.72,0-2.11.77-3.9,2.66-3.9a2.09,2.09,0,0,1,2,1.2h0v-1h1.41Zm-3-1.39c1.2,0,1.64-1.61,1.64-2.8s-.39-2.63-1.63-2.63-1.46,1.64-1.46,2.77S14.44,58,15.69,58m4.91-9.7H22v4.94h0a2.49,2.49,0,0,1,2.36-1.77c1.72,0,2,1.53,2,2.46v5.16H25V55.07c0-1.38,0-2.14-1-2.14S22,54.49,22,56v3.16H20.6Zm11.94,3.35H34v1.13h0A2.26,2.26,0,0,1,36,51.51c1.8,0,2.55,1.64,2.55,3.77,0,2.49-.94,4-2.63,4a2.07,2.07,0,0,1-2-1.19h0v4.36H32.54Zm3,6.52c1.09,0,1.45-1.24,1.45-2.8,0-1.13-.16-2.8-1.49-2.8-1.14,0-1.59,1.58-1.59,2.81s.38,2.79,1.63,2.79m9.58.85a7.12,7.12,0,0,1-1.86.25C41,59.3,39.6,58,39.6,55c0-3.19,2.08-3.54,3-3.54,1.81,0,2.69,1.24,2.69,3v.36H41c0,1.39.7,3.35,2.74,3.35a4.08,4.08,0,0,0,1.41-.27Zm-1.24-5.13a1.28,1.28,0,0,0-1.36-1.31,1.43,1.43,0,0,0-1.49,1.31Zm2.76-2.24h1.41v1.5h0a2.37,2.37,0,0,1,2.3-1.67V53c-1.27,0-2.33.64-2.33,2.93v3.16H46.68Zm6,1.1H51.32v-1.1h1.35v-.86c0-1.75.94-2.66,2.85-2.66a6.86,6.86,0,0,1,1.5.14v1.17a5.11,5.11,0,0,0-1.49-.22c-1.13,0-1.45.91-1.45,1.66v.77h2.22v1.1H54.07v6.35H52.67Zm4.16,2.63c0-2.38,1-3.9,3.3-3.9s3.28,1.52,3.28,3.9-1,3.89-3.28,3.89-3.3-1.55-3.3-3.89m3.3,2.8c1.52,0,1.72-1.61,1.72-2.8s-.2-2.8-1.72-2.8-1.74,1.6-1.74,2.8.19,2.8,1.74,2.8m4.73-6.52h1.41v1.5h0a2.37,2.37,0,0,1,2.3-1.67V53c-1.27,0-2.33.64-2.33,2.93v3.16H64.86Zm4.87,0h1.41v1.49h0a2.23,2.23,0,0,1,2.08-1.66,1.79,1.79,0,0,1,1.89,1.58h0a2.3,2.3,0,0,1,2.11-1.58c1.75,0,2,1.53,2,2.46v5.16H77.9V55.07c0-1.39,0-2.14-1-2.14-.88,0-1.64,1.39-1.64,2.64v3.57H73.82V55.07c0-1.38,0-2.14-1-2.14S71.14,54.49,71.14,56v3.16H69.73Zm15.06,6.52h0a2.06,2.06,0,0,1-1.92,1.1,1.9,1.9,0,0,1-2.11-2c0-2,2.17-2.44,4.07-2.44v-1.3a1.06,1.06,0,0,0-1.14-1,1.08,1.08,0,0,0-1.19,1.14H81c0-1.19.7-2.24,2.78-2.24A2.18,2.18,0,0,1,86.2,54v5.12H84.79Zm-.28-2.41c-1.11,0-2.22.5-2.22,1.46a.88.88,0,0,0,.81,1,2,2,0,0,0,1.69-2V55.8Zm3.55-4.11h1.41v1.6h0a2.49,2.49,0,0,1,2.36-1.77c1.72,0,2,1.53,2,2.46v5.16H92.46V55.07c0-1.38,0-2.14-1-2.14s-2,1.56-2,3.05v3.16H88.06ZM101,59a6.7,6.7,0,0,1-2.06.28c-2.85,0-3.64-2.31-3.64-4.16,0-2.08,1-3.63,3.17-3.63a2.38,2.38,0,0,1,2.66,2.6H99.51c0-.56-.11-1.5-1.14-1.5s-1.51.89-1.51,2.27.61,3.33,3,3.33a4,4,0,0,0,1.19-.16Zm6.68,0a7.08,7.08,0,0,1-1.86.25c-2.25,0-3.69-1.33-3.69-4.25,0-3.19,2.08-3.54,3-3.54,1.82,0,2.69,1.24,2.69,3v.36h-4.32c0,1.39.7,3.35,2.74,3.35a4,4,0,0,0,1.41-.27Zm-1.23-5.13a1.28,1.28,0,0,0-1.36-1.31,1.43,1.43,0,0,0-1.49,1.31ZM109.39,57h2.16v2.16h-2.16Zm8.28-8.63h2.77c3.29,0,4.55,1.81,4.55,5.37,0,4.47-2.05,5.43-4.55,5.43h-2.77Zm1.56,9.54h.92c2,0,3.11-.75,3.11-4.15s-1.16-4.15-3.13-4.15h-.91Zm12.45,1.17a7.11,7.11,0,0,1-1.86.25c-2.25,0-3.69-1.33-3.69-4.25,0-3.19,2.08-3.54,3-3.54,1.82,0,2.69,1.24,2.69,3v.36h-4.32c0,1.39.7,3.35,2.74,3.35a4,4,0,0,0,1.41-.27Zm-1.23-5.13a1.28,1.28,0,0,0-1.36-1.31,1.43,1.43,0,0,0-1.49,1.31Zm2.86-5.58h1.41V59.13h-1.41Zm3.28,0h1.69v1.6h-1.69Zm.14,3.35h1.41v7.45h-1.41Zm2.49,0h1.57l1.94,5.41h0l1.73-5.41h1.56l-2.58,7.45H142ZM152,59.06a7.08,7.08,0,0,1-1.86.25c-2.25,0-3.69-1.33-3.69-4.25,0-3.19,2.08-3.54,3-3.54,1.81,0,2.69,1.24,2.69,3v.36h-4.32c0,1.39.7,3.35,2.74,3.35a4,4,0,0,0,1.41-.27Zm-1.23-5.13a1.28,1.28,0,0,0-1.36-1.31,1.43,1.43,0,0,0-1.48,1.31Zm2.76-2.24h1.41v1.5h0a2.37,2.37,0,0,1,2.3-1.67V53c-1.27,0-2.33.64-2.33,2.93v3.16H153.5Zm10,7.37a7.11,7.11,0,0,1-1.86.25C159.39,59.3,158,58,158,55c0-3.19,2.08-3.54,3-3.54,1.82,0,2.69,1.24,2.69,3v.36h-4.32c0,1.39.71,3.35,2.74,3.35a4.07,4.07,0,0,0,1.41-.27Zm-1.24-5.13a1.28,1.28,0,0,0-1.36-1.31,1.43,1.43,0,0,0-1.49,1.31ZM169.33,58h0a2.16,2.16,0,0,1-2.07,1.31c-1.81,0-2.55-1.64-2.55-3.77,0-2.47.94-4,2.63-4a2,2,0,0,1,2,1.2h0V48.34h1.41V59.13h-1.41Zm-1.61.22c1.14,0,1.61-1.58,1.61-2.82s-.38-2.78-1.63-2.78c-1.1,0-1.46,1.24-1.46,2.8,0,1.13.16,2.8,1.47,2.8M172.45,57h2.16v2.16h-2.16Z"/></svg>